<svg xmlns="http://www.w3.org/2000/svg" viewBox="0 0 290 400" style="enable-background:new 0 0 290 400" xml:space="preserve"><path d="M145 400c151.9 0 145-46.5 145-55.9 0-35.8-13.4-74.5-44.4-98.1-16.1-12.3-25.1-23-30.2-32.6 10.6 0 12.9-1.8 16.8-7.3 13.1-18.8 18.9-38.2 16-61.2-.8-6.2-3.6-10.1-8.7-13.4l-13.9-9.1c4.6-10.7 7.1-22.3 7.1-34.5C232.6 39.2 193.3 0 145 0S57.4 39.2 57.4 87.8c0 12.1 2.5 23.8 7.1 34.5l-13.9 9.1c-5.1 3.4-8 7.3-8.7 13.4-3 23 2.9 42.4 16 61.2 3.8 5.5 6.1 7.3 16.8 7.3-5.1 9.5-14 20.2-30.2 32.6C13.5 269.5 0 308.1 0 344c0 9.5-6.9 56 145 56z" style="fill:#2e2c29"/><path d="M145 366c108.1 0 111-20.2 111-21.5 0-27.4-9.9-54.9-31-70.9-43.8-33.5-49.3-63.4-50.1-82.2 0-5 0-9.2-.1-12.5h34c4-7.4 6-14.2 6-22.7l-38.5-25.4c13.4-9.7 22.1-25.5 22.1-43.3 0-29.6-23.9-53.5-53.3-53.5S91.7 57.9 91.7 87.5c0 17.8 8.7 33.6 22.1 43.3l-38.5 25.4c0 8.5 2 15.3 6 22.7h34c-.1 3.3-.1 7.5-.1 12.5-.8 18.8-6.3 48.7-50.1 82.2-21 15.9-31 43.5-31 70.9C34 345.8 36.9 366 145 366z" style="fill:#fff"/></svg>